<svg width="31" height="21" viewBox="0 0 31 21" fill="none" xmlns="http://www.w3.org/2000/svg">
<path d="M7.23438 17.2344C7.14844 17.8438 7.02344 18.3633 6.85938 18.793C6.69531 19.2148 6.49609 19.5625 6.26172 19.8359C6.02734 20.1016 5.75781 20.293 5.45312 20.4102C5.15625 20.5352 4.82812 20.5977 4.46875 20.5977C3.96094 20.5977 3.48438 20.4492 3.03906 20.1523C2.60156 19.8555 2.22266 19.4141 1.90234 18.8281C1.58203 18.2422 1.32812 17.5156 1.14062 16.6484C0.960938 15.7812 0.871094 14.7773 0.871094 13.6367C0.871094 12.4414 0.984375 11.2812 1.21094 10.1562C1.44531 9.03125 1.77344 7.97656 2.19531 6.99219C2.625 6.00781 3.13672 5.10937 3.73047 4.29688C4.33203 3.47656 5 2.77734 5.73438 2.19922C6.47656 1.61328 7.27734 1.16016 8.13672 0.839844C8.99609 0.511719 9.89453 0.347656 10.832 0.347656C11.6367 0.347656 12.3711 0.46875 13.0352 0.710938C13.6992 0.953125 14.2695 1.28906 14.7461 1.71875C15.2227 2.14844 15.5898 2.65625 15.8477 3.24219C16.1055 3.82812 16.2344 4.46094 16.2344 5.14062C16.2344 5.96094 16.1211 6.72656 15.8945 7.4375C15.668 8.14062 15.3516 8.78516 14.9453 9.37109C14.5469 9.95703 14.0703 10.4805 13.5156 10.9414C12.9609 11.4023 12.3555 11.793 11.6992 12.1133C11.0508 12.4336 10.3633 12.6836 9.63672 12.8633C8.91797 13.0352 8.1875 13.1328 7.44531 13.1562C7.42188 14.1328 7.39453 14.957 7.36328 15.6289C7.33984 16.293 7.29688 16.8281 7.23438 17.2344ZM5.19531 12.3242C5.23438 12.3398 5.28125 12.3555 5.33594 12.3711C5.38281 12.3867 5.4375 12.4023 5.5 12.418C5.57031 12.4336 5.65234 12.4492 5.74609 12.4648C5.73047 11.4883 5.71094 10.5938 5.6875 9.78125C5.67188 8.96094 5.65234 8.24609 5.62891 7.63672C5.59766 6.92578 5.57031 6.28516 5.54688 5.71484C5.60156 5.66797 5.66406 5.62891 5.73438 5.59766C5.79688 5.56641 5.87109 5.53906 5.95703 5.51562C6.04297 5.49219 6.14844 5.48047 6.27344 5.48047C6.63281 5.48047 6.92188 5.54688 7.14062 5.67969C7.35938 5.80469 7.46875 6.01953 7.46875 6.32422C7.46875 7.61328 7.46875 8.76953 7.46875 9.79297C7.46875 10.8164 7.46094 11.7383 7.44531 12.5586C8.46875 12.5586 9.39453 12.3633 10.2227 11.9727C11.0586 11.582 11.7695 11.0625 12.3555 10.4141C12.9414 9.75781 13.3945 9.00391 13.7148 8.15234C14.0352 7.30078 14.1953 6.41016 14.1953 5.48047C14.1953 4.88672 14.1133 4.32422 13.9492 3.79297C13.793 3.25391 13.5508 2.78516 13.2227 2.38672C12.8945 1.98047 12.4805 1.66016 11.9805 1.42578C11.4883 1.18359 10.9062 1.0625 10.2344 1.0625C9.55469 1.0625 8.88281 1.19141 8.21875 1.44922C7.5625 1.70703 6.93359 2.09375 6.33203 2.60938C5.73828 3.125 5.1875 3.76563 4.67969 4.53125C4.17969 5.29687 3.74219 6.19141 3.36719 7.21484C3 8.23828 2.71094 9.38672 2.5 10.6602C2.29688 11.9258 2.19531 13.3203 2.19531 14.8438C2.19531 15.5 2.22656 16.1406 2.28906 16.7656C2.35938 17.3828 2.47266 17.9336 2.62891 18.418C2.78516 18.8945 2.99219 19.2773 3.25 19.5664C3.51562 19.8555 3.84375 20 4.23438 20C4.44531 20 4.64453 19.957 4.83203 19.8711C5.01953 19.7852 5.18359 19.6094 5.32422 19.3438C5.46484 19.0703 5.57812 18.6836 5.66406 18.1836C5.75 17.6758 5.79297 17 5.79297 16.1562C5.79297 15.625 5.78906 15.1016 5.78125 14.5859C5.77344 14.0625 5.76953 13.5547 5.76953 13.0625C5.65234 13.0469 5.55078 13.0273 5.46484 13.0039C5.37891 12.9805 5.30469 12.9609 5.24219 12.9453C5.17188 12.9219 5.11328 12.8984 5.06641 12.875L5.19531 12.3242ZM16.2344 18.9219C16.2344 18.7734 16.2617 18.6328 16.3164 18.5C16.3711 18.3672 16.4453 18.2539 16.5391 18.1602C16.6406 18.0586 16.7578 17.9805 16.8906 17.9258C17.0234 17.8711 17.1641 17.8438 17.3125 17.8438C17.4609 17.8438 17.6016 17.8711 17.7344 17.9258C17.8672 17.9805 17.9805 18.0586 18.0742 18.1602C18.1758 18.2539 18.2539 18.3672 18.3086 18.5C18.3633 18.6328 18.3906 18.7734 18.3906 18.9219C18.3906 19.0703 18.3633 19.2109 18.3086 19.3438C18.2539 19.4766 18.1758 19.5938 18.0742 19.6953C17.9805 19.7891 17.8672 19.8633 17.7344 19.918C17.6016 19.9727 17.4609 20 17.3125 20C17.1641 20 17.0234 19.9727 16.8906 19.918C16.7578 19.8633 16.6406 19.7891 16.5391 19.6953C16.4453 19.5938 16.3711 19.4766 16.3164 19.3438C16.2617 19.2109 16.2344 19.0703 16.2344 18.9219ZM26.6875 15.9219C26.6875 16.4531 26.6055 16.9648 26.4414 17.457C26.2852 17.9414 26.0508 18.375 25.7383 18.7578C25.4336 19.1328 25.0508 19.4336 24.5898 19.6602C24.1367 19.8867 23.6172 20 23.0312 20C22.6094 20 22.2305 19.9336 21.8945 19.8008C21.5664 19.6602 21.2852 19.4766 21.0508 19.25C20.8164 19.0156 20.6367 18.7539 20.5117 18.4648C20.3867 18.168 20.3242 17.8633 20.3242 17.5508C20.3242 17.2383 20.3828 16.9492 20.5 16.6836C20.625 16.4102 20.7891 16.1797 20.9922 15.9922C21.2031 15.7969 21.4414 15.6445 21.707 15.5352C21.9727 15.4258 22.2539 15.3711 22.5508 15.3711C22.7383 15.3711 22.9336 15.3945 23.1367 15.4414V15.7812C22.8867 15.7812 22.6406 15.832 22.3984 15.9336C22.1641 16.0352 21.9531 16.1758 21.7656 16.3555C21.5859 16.5273 21.4414 16.7383 21.332 16.9883C21.2227 17.2305 21.168 17.4922 21.168 17.7734C21.168 18.2891 21.3438 18.7031 21.6953 19.0156C22.0547 19.3203 22.543 19.4727 23.1602 19.4727C23.4727 19.4727 23.7578 19.4141 24.0156 19.2969C24.2734 19.1719 24.4922 19.0039 24.6719 18.793C24.8594 18.5742 25 18.3164 25.0938 18.0195C25.1953 17.7227 25.2461 17.3984 25.2461 17.0469C25.2461 16.7109 25.1797 16.3984 25.0469 16.1094C24.9141 15.8203 24.7383 15.5469 24.5195 15.2891C24.3008 15.0312 24.0508 14.7891 23.7695 14.5625C23.4961 14.3359 23.2148 14.1211 22.9258 13.918C22.6445 13.707 22.3672 13.5039 22.0938 13.3086C21.8203 13.1133 21.582 12.918 21.3789 12.7227L20.207 15.3242L19.7266 14.9609L20.9219 12.3477C20.6328 12.0742 20.418 11.8164 20.2773 11.5742C20.1445 11.3242 20.0781 11.0273 20.0781 10.6836C20.0781 10.4961 20.1094 10.3203 20.1719 10.1562C20.2422 9.98438 20.332 9.83984 20.4414 9.72266C20.5586 9.59766 20.6914 9.5 20.8398 9.42969C20.9883 9.35938 21.1445 9.32422 21.3086 9.32422C21.6055 9.32422 21.8281 9.41016 21.9766 9.58203C22.125 9.74609 22.1992 9.95312 22.1992 10.2031C22.1992 10.3203 22.1875 10.4453 22.1641 10.5781C22.1406 10.7031 22.1094 10.832 22.0703 10.9648C22.0391 11.0898 22.0039 11.207 21.9648 11.3164C21.9336 11.4258 21.9062 11.5195 21.8828 11.5977C22.1172 11.7773 22.3984 11.9531 22.7266 12.125C23.0547 12.2891 23.3945 12.4609 23.7461 12.6406C24.1055 12.8203 24.4609 13.0156 24.8125 13.2266C25.1641 13.4375 25.4766 13.6719 25.75 13.9297C26.0312 14.1875 26.2578 14.4805 26.4297 14.8086C26.6016 15.1367 26.6875 15.5078 26.6875 15.9219ZM21.332 9.85156C21.2227 9.85156 21.1328 9.89062 21.0625 9.96875C21 10.0391 20.9688 10.1367 20.9688 10.2617C20.9688 10.4023 21.0039 10.5586 21.0742 10.7305C21.1445 10.9023 21.2695 11.0703 21.4492 11.2344C21.5273 11.0703 21.5859 10.9102 21.625 10.7539C21.6719 10.5977 21.6953 10.4414 21.6953 10.2852C21.6953 10.1602 21.6602 10.0586 21.5898 9.98047C21.5273 9.89453 21.4414 9.85156 21.332 9.85156ZM28.6094 18.9219C28.6094 18.7734 28.6367 18.6328 28.6914 18.5C28.7461 18.3672 28.8203 18.2539 28.9141 18.1602C29.0156 18.0586 29.1328 17.9805 29.2656 17.9258C29.3984 17.8711 29.5391 17.8438 29.6875 17.8438C29.8359 17.8438 29.9766 17.8711 30.1094 17.9258C30.2422 17.9805 30.3555 18.0586 30.4492 18.1602C30.5508 18.2539 30.6289 18.3672 30.6836 18.5C30.7383 18.6328 30.7656 18.7734 30.7656 18.9219C30.7656 19.0703 30.7383 19.2109 30.6836 19.3438C30.6289 19.4766 30.5508 19.5938 30.4492 19.6953C30.3555 19.7891 30.2422 19.8633 30.1094 19.918C29.9766 19.9727 29.8359 20 29.6875 20C29.5391 20 29.3984 19.9727 29.2656 19.918C29.1328 19.8633 29.0156 19.7891 28.9141 19.6953C28.8203 19.5938 28.7461 19.4766 28.6914 19.3438C28.6367 19.2109 28.6094 19.0703 28.6094 18.9219Z" fill="#3A6EF3"/>
</svg>
